<?xml version="1.0" encoding="utf-8"?>
<!-- Generator: Adobe Illustrator 22.1.0, SVG Export Plug-In . SVG Version: 6.00 Build 0)  -->
<svg version="1.1" id="Camada_1" xmlns="http://www.w3.org/2000/svg" xmlns:xlink="http://www.w3.org/1999/xlink" x="0px" y="0px"
	 viewBox="0 0 90.8 90.8" style="enable-background:new 0 0 90.8 90.8;" xml:space="preserve">
<style type="text/css">
	.st0{fill:#5DAADC;}
	.st1{fill:#64C7D8;}
	.st2{fill:#D4322C;}
	.st3{fill:#34B34A;}
	.st4{fill:#87BCE5;}
	.st5{fill:#70CBD3;}
	.st6{fill:#557ABC;}
	.st7{fill:#2192B7;}
	.st8{fill:#218844;}
	.st9{fill:#5FB94E;}
	.st10{fill:#932620;}
</style>
<g>
	<path d="M45.4,9.3c19.9,0,36.1,16.1,36.1,36.1S65.3,81.5,45.4,81.5c-19.9,0-36.1-16.1-36.1-36.1S25.5,9.3,45.4,9.3 M45.4,4.3
		C22.8,4.3,4.3,22.8,4.3,45.4s18.4,41.1,41.1,41.1c22.6,0,41.1-18.4,41.1-41.1S68.1,4.3,45.4,4.3L45.4,4.3z"/>
</g>
<g>
	<path d="M54.9,22.5c-0.5-1.8-1.6-3.2-2.9-4.4c-2.3-2.6-4.7-5.2-7.2-7.9c0,0.8,0,1.4,0,1.9c0,3.7,0.2,16.7,0.3,19.4
		c0.1,2.3,0.2,4.5,0.2,6.8c0,1.1,0.1,2.2,0.1,3.3c0,1-0.2,2,0,3c0.2,0.9,1,1.5,1.7,2c0.8,0.6,1.6,1.1,2.5,1.5
		c1.2,0.5,2.5,0.6,3.8,0.5c1-0.1,2.9-0.4,2.9-1.7c0-0.8-0.2-2.8-0.2-3.1c-0.1-1.3-0.5-14.5-0.6-15.7"/>
	<path d="M22.8,36c-1.8,0.5-3.2,1.6-4.4,3c-2.6,2.4-5.2,4.7-7.9,7.2c0.8,0,1.4,0,1.9,0c3.7,0,16.7-0.2,19.4-0.3
		c2.3-0.1,4.5-0.2,6.8-0.2c1.1,0,2.2-0.1,3.3-0.1c1,0,2,0.2,3,0c0.9-0.2,1.5-1,2-1.7c0.6-0.8,1.1-1.6,1.5-2.5
		c0.5-1.2,0.6-2.5,0.5-3.8c-0.1-1-0.4-2.9-1.8-2.9c-0.8,0-2.8,0.2-3.1,0.2c-1.3,0.1-14.5,0.5-15.7,0.6"/>
	<path d="M36.3,68.1c0.5,1.8,1.6,3.2,3,4.4c2.4,2.6,4.7,5.1,7.2,7.9c0-0.8,0-1.4,0-1.9c0-3.7-0.3-16.7-0.3-19.4
		c-0.1-2.3-0.2-4.5-0.3-6.8c0-1.1-0.1-2.2-0.1-3.3c0-1,0.2-2,0-3c-0.2-0.9-1-1.5-1.7-2c-0.8-0.6-1.6-1.1-2.5-1.5
		c-1.2-0.5-2.5-0.6-3.8-0.5c-1,0.1-2.9,0.4-2.9,1.8c0,0.8,0.2,2.8,0.2,3.1c0.1,1.3,0.5,14.5,0.6,15.7"/>
	<path d="M68.5,54.5c1.8-0.5,3.2-1.7,4.4-3c2.6-2.4,5.1-4.7,7.9-7.2c-0.8,0-1.4,0-1.9,0c-3.7,0-16.7,0.3-19.4,0.4
		c-2.3,0.1-4.5,0.2-6.8,0.3c-1.1,0-2.2,0.1-3.3,0.1c-1,0-2-0.2-3,0c-0.9,0.2-1.5,1-2,1.7c-0.6,0.8-1.1,1.6-1.5,2.5
		c-0.5,1.2-0.6,2.5-0.4,3.8c0.1,1,0.4,2.9,1.8,2.9c0.8,0,2.8-0.2,3.1-0.2c1.3-0.1,14.5-0.6,15.7-0.7"/>
	<path d="M36.1,22.5c-1.6-0.9-3.4-1.1-5.2-1.1c-3.5-0.2-7-0.3-10.7-0.5c0.6,0.6,1,1,1.4,1.4c2.6,2.6,5.3,5.3,7.9,7.9
		c2.1,1.7,4,3.7,6,5.6c1.7,1.5,3.3,3.1,5,4.6c0.8,0.8,1.6,1.5,2.4,2.3c0.7,0.7,1.3,1.6,2.1,2.1c0.8,0.5,1.8,0.4,2.6,0.3
		c0.9-0.1,1.9-0.3,2.8-0.7c1.2-0.5,2.2-1.3,3-2.4c0.6-0.8,1.8-2.4,0.8-3.3c-0.6-0.6-2.1-1.9-2.3-2C50.9,36,41.3,27,40.3,26.2"/>
	<path d="M22.9,54.8c-0.9,1.6-1.1,3.4-1.1,5.2c-0.2,3.5-0.3,7-0.5,10.7c0.6-0.6,1-1,1.4-1.4c2.6-2.6,11.6-12,13.5-14
		c1.5-1.7,3.1-3.3,4.6-5c0.8-0.8,1.5-1.6,2.3-2.4c0.7-0.7,1.6-1.3,2.1-2.1c0.5-0.8,0.4-1.8,0.3-2.6c-0.1-0.9-0.3-1.9-0.7-2.8
		c-0.5-1.2-1.4-2.2-2.4-3c-0.8-0.6-2.4-1.8-3.3-0.8c-0.6,0.6-1.9,2.1-2,2.3c-0.9,0.9-9.9,10.6-10.7,11.6"/>
	<path d="M55.2,68c2.3,1.3,4.9,1,7.4,1.1c2.8,0.1,5.7,0.2,8.5,0.3c-7.5-7.2-15-14.4-22.4-21.6c-1.2-1.2-2.6-2.4-4.3-2.6
		c-1.8-0.2-3.5,0.9-5,1.9c-1.3,0.9-2.7,2-2.5,3.5c0.1,1,0.9,1.8,1.7,2.5c0,0.3,1.6,1.4,1.8,1.7c0.7,0.6,1.3,1.2,2,1.8
		c1.3,1.2,2.7,2.4,4,3.7c1.3,1.2,2.6,2.4,3.9,3.6c1.2,1.1,2.4,2.4,3.8,3.3"/>
	<path d="M68.3,35.6c0.9-1.6,1.1-3.4,1-5.2c0.2-3.5,0.3-7,0.5-10.7c-0.6,0.6-1,1-1.4,1.4c-2.6,2.6-6.2,6.2-6.2,6.2s-5.4,5.8-7.2,7.7
		c-1.5,1.7-3.1,3.3-4.6,5c-0.8,0.8-1.5,1.6-2.3,2.4c-0.7,0.7-1.6,1.3-2.1,2.1c-0.5,0.8-0.4,1.8-0.3,2.6c0.1,0.9,0.3,1.9,0.7,2.8
		c0.5,1.2,1.4,2.2,2.4,3c0.8,0.6,2.4,1.8,3.3,0.8c0.6-0.6,1.9-2.1,2-2.3c0.9-0.9,9.8-10.6,10.7-11.6"/>
</g>
<g>
	<g>
		<path class="st0" d="M38.9,53.3c-2.1,2.1-4.2,4.2-6.4,6.3c-1.1,1-2.1,2.1-3.2,3.1c-0.3-0.2-0.2-0.4-0.2-0.6
			c0.2-3.3,0.3-6.5,0.5-9.8c0-0.2,0.1-0.4,0.1-0.6c2.1-1.6,4.2-3.1,6.6-4.2c1.6-0.7,3.2-1.4,4.9-1.7c-2,0.9-3.4,2.5-4.3,4.5
			c-0.3,0.7-0.2,1.1,0.4,1.5C37.9,52.3,38.4,52.8,38.9,53.3z"/>
		<path class="st1" d="M52.5,37.5c2.8-2.7,9.1-9.6,9.7-10.1c-0.2,3.8-0.4,8-0.5,11.6c-2.1,1.6-4.2,3.1-6.6,4.2
			c-1.6,0.7-3.2,1.4-4.9,1.6c2-1,3.4-2.5,4.2-4.6c0.2-0.5,0.2-0.9-0.3-1.3C53.5,38.5,53,38,52.5,37.5z"/>
		<path class="st2" d="M37.6,38.5c-3.2-3.2-6.4-6.5-9.7-9.7c0-0.1,0.1-0.1,0.1-0.2c0.4,0,0.8,0,1.2,0.1c2.9,0.1,5.9,0.3,8.8,0.4
			c0.3,0,0.6,0.1,0.9,0.1c1.3,1.7,2.6,3.4,3.6,5.4c0.6,1.2,1.4,2.3,1.5,3.7c-1-0.8-2.1-1.6-3.3-2.1c-0.5-0.2-0.8-0.2-1.1,0.3
			C39,37.2,38.3,37.9,37.6,38.5z"/>
		<path class="st3" d="M53.7,52.2c3.2,3.2,6.5,6.5,9.8,9.8c-3.8-0.2-7.5-0.4-11.1-0.5c-1.1-1.5-2.3-3-3.2-4.7
			c-0.8-1.6-1.7-3.1-2.1-4.8c1.1,1,2.2,1.9,3.6,2.4c0.6,0.2,0.9,0.1,1.3-0.3C52.6,53.5,53.7,52.2,53.7,52.2z"/>
		<path class="st4" d="M37.6,38.5c0.7-0.7,1.3-1.4,1.9-2.1c0.3-0.4,0.6-0.4,1.1-0.3c1.3,0.5,2.3,1.3,3.3,2.1c0,0,0.1,0.2,0.2,0.3
			c1.1,1.5,1.6,3.2,1.8,5c0,0.2,0,0.4,0,0.7c-0.5,0-0.9,0.1-1.2,0.5c-0.7-0.2-1.3-0.4-2-0.5c-2.4-0.5-4.8-0.7-7.2-0.3
			c-1.3,0.2-2.5,0.8-3.7,1.2c1-1.5,2.4-2.7,3.6-4.1C36.1,40.2,36.9,39.4,37.6,38.5z"/>
		<path class="st5" d="M52,54.1c-0.4,0.5-0.8,0.5-1.3,0.3c-1.4-0.5-2.5-1.5-3.6-2.4c0,0,0,0,0,0c-0.1-0.1-0.1-0.2-0.2-0.3
			c-0.9-1.4-1.3-3-1.5-4.7c0-0.2,0-0.4,0-0.7c0.5,0,0.9-0.2,1.2-0.5c0.6,0.4,1.3,0.4,2,0.6c2.4,0.5,4.9,0.7,7.3,0.3
			c1.3-0.2,2.5-0.8,3.7-1.2c-0.8,1.2-1.9,2.2-2.8,3.3c-0.9,1-1.8,2-2.7,3C54,51.9,52.6,53.5,52,54.1z"/>
		<path class="st6" d="M44.5,45.3c-1.1,0.1-2.2,0.3-3.3,0.6c-1.7,0.2-3.3,0.9-4.9,1.7c-2.4,1.1-4.5,2.6-6.6,4.2
			c0-1.9,0.2-3.8,1.2-5.5c0.2-0.4,0.5-0.8,0.9-1c1.2-0.4,2.4-1,3.7-1.2c2.4-0.4,4.8-0.2,7.2,0.3c0.7,0.1,1.3,0.3,2,0.5
			C44.7,44.9,44.6,45.1,44.5,45.3z"/>
		<path class="st7" d="M47,45.5c1.1,0,2.1-0.3,3.1-0.6c1.7-0.2,3.3-0.9,4.9-1.6c2.4-1.1,4.6-2.6,6.6-4.2c0,1.9-0.1,3.7-1.1,5.4
			c-0.2,0.4-0.5,0.8-0.9,1.1c-1.2,0.4-2.4,1-3.7,1.2c-2.5,0.4-4.9,0.2-7.3-0.3c-0.7-0.1-1.4-0.2-2-0.6C46.7,45.7,46.8,45.6,47,45.5z
			"/>
		<path class="st8" d="M44.5,50.5c0.3-1.2,0.3-2.4,0.9-3.5c0.2,1.7,0.6,3.2,1.5,4.7c0,0.1,0,0.3,0.2,0.3c0,0,0,0,0,0
			c0.3,1.8,1.3,3.3,2.1,4.8c0.9,1.7,2.1,3.1,3.2,4.7c-2,0-3.9-0.2-5.6-1.3c-0.3-0.2-0.5-0.4-0.7-0.6c-0.1-0.1-0.1-0.1-0.2-0.2
			c0,0,0,0,0,0c-0.1-0.1-0.1-0.1-0.2-0.2c0,0,0,0,0,0c0.1-0.6-0.4-1.1-0.6-1.7c-0.4-1.3-0.6-2.6-0.7-4
			C44.4,52.6,44.5,51.6,44.5,50.5z"/>
		<path class="st9" d="M45.7,59.3c0.1,0.1,0.1,0.1,0.2,0.2C45.7,59.5,45.7,59.4,45.7,59.3z"/>
		<path class="st9" d="M45.9,59.5c0.1,0.1,0.1,0.1,0.2,0.2C46,59.6,45.9,59.5,45.9,59.5z"/>
		<path d="M47,45.5c-0.2,0.1-0.3,0.2-0.3,0.4c-0.3,0.3-0.7,0.5-1.2,0.5c-0.4-0.3-0.7-0.7-0.9-1.1c0.1-0.2,0.1-0.3,0.2-0.5
			c0.3-0.4,0.7-0.5,1.2-0.5C46.6,44.4,46.6,45.1,47,45.5z"/>
		<path class="st10" d="M46.7,35.4c-0.2-1.5-0.8-2.8-1.3-4.2c-0.2-0.3-0.5-0.5-0.8-0.7c-1.8-1.1-3.7-1.4-5.7-1.3
			c1.3,1.7,2.6,3.4,3.6,5.4c0.6,1.2,1.4,2.3,1.5,3.7c0,0,0.1,0.2,0.2,0.3c1.1,1.5,1.6,3.2,1.8,5c0.4-1.1,0.6-2.3,0.8-3.4
			c0.1-1,0.1-2.1,0.2-3.1C46.9,36.5,46.8,36,46.7,35.4z"/>
		<path class="st8" d="M47.1,52c-0.2-0.1-0.2-0.2-0.2-0.3C47,51.8,47,51.9,47.1,52z"/>
		<path class="st3" d="M45.1,57.6c-0.4-1.3-0.6-2.6-0.7-4c0-0.2-0.1-0.4-0.1-0.6c0,0.2,0,0.4,0.1,0.6c0.1-1,0.1-2.1,0.2-3.1
			c0.3-1.2,0.3-2.4,0.9-3.5c0-0.2,0-0.4,0-0.7c-0.4-0.3-0.7-0.7-0.9-1.1c-1.1,0.1-2.2,0.3-3.3,0.6c-2,0.9-3.4,2.5-4.3,4.5
			c-0.3,0.7-0.2,1.1,0.4,1.5c0.6,0.4,1,0.9,1.6,1.4c0.9,0.8,1.7,1.6,2.6,2.3c1.4,1.2,2.7,2.6,4.2,3.7C45.7,58.7,45.3,58.2,45.1,57.6
			z"/>
		<path class="st2" d="M54.1,39c-0.6-0.5-1.1-1-1.6-1.5c-0.4-0.3-0.7-0.6-1.1-0.9c-2-1.8-3.9-3.7-6-5.3c0.5,1.4,1.1,2.7,1.3,4.2
			c0.1,0.5,0.1,1.1,0.2,1.6c0,0,0,0,0,0c-0.1,1-0.1,2.1-0.2,3.1c-0.2,1.2-0.4,2.3-0.8,3.4c0,0.2,0,0.4,0,0.7c0.6,0.2,0.6,0.9,1,1.2
			c1.1,0,2.1-0.3,3.1-0.6c2-1,3.4-2.5,4.2-4.6C54.6,39.7,54.6,39.4,54.1,39z"/>
	</g>
</g>
</svg>
